<svg width="80" height="66" viewBox="0 0 80 66" fill="none" xmlns="http://www.w3.org/2000/svg">
<path d="M4 37H66.344L44.888 58.456C43.326 60.018 43.326 62.551 44.887 64.112C46.449 65.674 48.983 65.674 50.545 64.112L78.828 35.828C79.014 35.642 79.18 35.437 79.326 35.219C79.393 35.118 79.44 35.009 79.498 34.904C79.564 34.78 79.64 34.662 79.693 34.531C79.75 34.396 79.782 34.256 79.822 34.116C79.855 34.005 79.898 33.899 79.921 33.785C79.973 33.525 80 33.263 80 33C80 32.997 79.999 32.994 79.999 32.991C79.998 32.732 79.972 32.472 79.921 32.217C79.897 32.097 79.852 31.986 79.817 31.868C79.778 31.735 79.748 31.6 79.694 31.471C79.636 31.332 79.558 31.206 79.486 31.075C79.432 30.977 79.389 30.877 79.327 30.783C79.181 30.562 79.013 30.356 78.826 30.169L50.544 1.888C48.982 0.325995 46.449 0.325994 44.887 1.88699C43.325 3.44899 43.325 5.98199 44.887 7.54499L66.343 29H4C1.791 29 0 30.791 0 33C0 35.209 1.791 37 4 37Z" fill="white"/>
</svg>
